<svg width="14" height="14" viewBox="0 0 14 14" fill="none" xmlns="http://www.w3.org/2000/svg">
<g clip-path="url(#clip0_0_14)">
<path d="M7 0C10.866 0 14 3.13401 14 6.99999C14 10.5789 11.3141 13.5301 7.84806 13.9487V9.13908L9.7417 9.13908L10.1345 7H7.84806V6.24346C7.84806 5.67827 7.95892 5.28698 8.21325 5.03699C8.4676 4.78699 8.86543 4.67829 9.43933 4.67829C9.58458 4.67829 9.71828 4.67974 9.83691 4.68263C10.0095 4.68683 10.1501 4.69408 10.248 4.70439V2.76528C10.2089 2.75441 10.1627 2.74354 10.1109 2.73284C9.9937 2.70859 9.84796 2.68522 9.69128 2.6647C9.36387 2.62181 8.98875 2.59134 8.72631 2.59134C7.6664 2.59134 6.86537 2.8181 6.30624 3.28778C5.63143 3.85461 5.30896 4.77529 5.30896 6.07826V6.99999H3.86551V9.13908H5.30896V13.7939C2.26002 13.0374 0 10.2829 0 6.99999C0 3.13401 3.13401 0 7 0Z" fill="black"/>
</g>
<defs>
<clipPath id="clip0_0_14">
<rect width="14" height="14" fill="white"/>
</clipPath>
</defs>
</svg>
